<?xml version="1.0" standalone="no"?>
<!DOCTYPE svg PUBLIC "-//W3C//DTD SVG 20010904//EN"
 "http://www.w3.org/TR/2001/REC-SVG-20010904/DTD/svg10.dtd">
<svg version="1.0" xmlns="http://www.w3.org/2000/svg"
 width="512.000000pt" height="512.000000pt" viewBox="0 0 512.000000 512.000000"
 preserveAspectRatio="xMidYMid meet">
<metadata>
Created by potrace 1.11, written by Peter Selinger 2001-2013
</metadata>
<g transform="translate(0.000000,512.000000) scale(0.100000,-0.100000)"
fill="#000000" stroke="none">
<path d="M0 2560 l0 -2560 2560 0 2560 0 0 2560 0 2560 -2560 0 -2560 0 0
-2560z m3010 2308 c107 -54 129 -188 45 -273 -42 -42 -87 -55 -185 -55 -346 0
-754 -140 -1071 -366 -97 -69 -287 -249 -369 -349 -170 -208 -303 -468 -370
-727 -231 -889 184 -1810 1001 -2222 249 -125 481 -188 762 -206 104 -6 167
-15 187 -25 73 -38 111 -118 91 -193 -14 -51 -55 -100 -98 -118 -78 -33 -391
-5 -632 57 -459 117 -859 365 -1168 723 -280 325 -462 721 -530 1151 -25 157
-25 528 0 680 83 500 298 925 645 1272 418 417 988 662 1567 672 66 1 89 -3
125 -21z m193 -708 c579 -99 1063 -523 1241 -1090 62 -195 86 -477 47 -550
-51 -96 -179 -118 -261 -44 -47 43 -56 71 -65 193 -17 251 -96 472 -239 666
-350 473 -988 636 -1513 385 -141 -67 -241 -138 -353 -250 -248 -247 -370
-561 -357 -915 25 -638 518 -1140 1164 -1183 133 -9 172 -24 209 -80 66 -97
15 -232 -98 -263 -50 -13 -243 0 -368 27 -191 40 -403 131 -573 246 -121 82
-323 284 -405 405 -330 488 -370 1096 -105 1615 77 152 161 266 293 399 247
248 535 391 910 452 14 2 100 5 192 6 124 1 195 -4 281 -19z m-127 -691 c338
-59 599 -292 701 -626 23 -78 27 -105 27 -233 1 -112 -4 -161 -18 -215 -43
-159 -109 -277 -220 -393 -187 -195 -399 -280 -671 -269 -182 6 -309 48 -460
150 -176 119 -316 329 -359 539 -20 97 -21 265 -1 356 72 344 336 611 675 683
97 20 238 24 326 8z"/>
<path d="M2779 3111 c-194 -62 -341 -235 -370 -432 -28 -193 57 -391 215 -504
97 -69 188 -98 306 -98 158 -1 277 50 383 162 105 113 147 217 147 366 -1 98
-12 150 -52 235 -61 127 -211 248 -348 279 -72 17 -217 12 -281 -8z m235 -380
c67 -44 88 -140 46 -209 -28 -46 -97 -76 -153 -66 -55 9 -112 65 -123 118 -9
53 20 123 65 153 44 30 123 31 165 4z"/>
</g>
</svg>
